<svg xmlns="http://www.w3.org/2000/svg" width="512" height="512" viewBox="0 0 512 512"><title>0829_마디풀</title><defs><linearGradient id="lg1" x1="0" y1="0" x2="0.4" y2="1"><stop offset="0" stop-color="#78AD54"/><stop offset="1" stop-color="#305F10"/></linearGradient>
<linearGradient id="lg2" x1="0" y1="0" x2="0.4" y2="1"><stop offset="0" stop-color="#78AD54"/><stop offset="1" stop-color="#305F10"/></linearGradient>
<linearGradient id="lg3" x1="0.2" y1="0" x2="0.8" y2="1"><stop offset="0" stop-color="#F6E8EA"/><stop offset="1" stop-color="#DDC7CA"/></linearGradient>
<radialGradient id="rg4" cx="0.5" cy="0.5" r="0.75" fx="0.35" fy="0.3"><stop offset="0" stop-color="#F8EDEF"/><stop offset="1" stop-color="#D3BEC2"/></radialGradient>
<radialGradient id="rg5" cx="0.5" cy="0.5" r="0.75" fx="0.35" fy="0.3"><stop offset="0" stop-color="#F8EDEF"/><stop offset="1" stop-color="#D3BEC2"/></radialGradient>
<radialGradient id="rg6" cx="0.5" cy="0.5" r="0.75" fx="0.35" fy="0.3"><stop offset="0" stop-color="#F8EDEF"/><stop offset="1" stop-color="#D3BEC2"/></radialGradient>
<radialGradient id="rg7" cx="0.5" cy="0.5" r="0.75" fx="0.35" fy="0.3"><stop offset="0" stop-color="#F8EDEF"/><stop offset="1" stop-color="#D3BEC2"/></radialGradient>
<radialGradient id="rg8" cx="0.5" cy="0.5" r="0.75" fx="0.35" fy="0.3"><stop offset="0" stop-color="#F8EDEF"/><stop offset="1" stop-color="#D3BEC2"/></radialGradient>
<radialGradient id="rg9" cx="0.5" cy="0.5" r="0.75" fx="0.35" fy="0.3"><stop offset="0" stop-color="#F8EDEF"/><stop offset="1" stop-color="#D3BEC2"/></radialGradient>
<radialGradient id="rg10" cx="0.5" cy="0.5" r="0.75" fx="0.35" fy="0.3"><stop offset="0" stop-color="#F8EDEF"/><stop offset="1" stop-color="#D3BEC2"/></radialGradient>
<radialGradient id="rg11" cx="0.5" cy="0.5" r="0.75" fx="0.35" fy="0.3"><stop offset="0" stop-color="#F8EDEF"/><stop offset="1" stop-color="#D3BEC2"/></radialGradient>
<radialGradient id="rg12" cx="0.5" cy="0.5" r="0.75" fx="0.35" fy="0.3"><stop offset="0" stop-color="#F8EDEF"/><stop offset="1" stop-color="#D3BEC2"/></radialGradient>
<radialGradient id="rg13" cx="0.5" cy="0.5" r="0.75" fx="0.35" fy="0.3"><stop offset="0" stop-color="#F8EDEF"/><stop offset="1" stop-color="#D3BEC2"/></radialGradient>
<radialGradient id="rg14" cx="0.5" cy="0.5" r="0.75" fx="0.35" fy="0.3"><stop offset="0" stop-color="#F8EDEF"/><stop offset="1" stop-color="#D3BEC2"/></radialGradient>
<radialGradient id="rg15" cx="0.5" cy="0.5" r="0.75" fx="0.35" fy="0.3"><stop offset="0" stop-color="#F8EDEF"/><stop offset="1" stop-color="#D3BEC2"/></radialGradient>
<radialGradient id="rg16" cx="0.5" cy="0.5" r="0.75" fx="0.35" fy="0.3"><stop offset="0" stop-color="#F8EDEF"/><stop offset="1" stop-color="#D3BEC2"/></radialGradient>
<radialGradient id="rg17" cx="0.5" cy="0.5" r="0.75" fx="0.35" fy="0.3"><stop offset="0" stop-color="#F8EDEF"/><stop offset="1" stop-color="#D3BEC2"/></radialGradient>
<radialGradient id="rg18" cx="0.5" cy="0.5" r="0.75" fx="0.35" fy="0.3"><stop offset="0" stop-color="#F8EDEF"/><stop offset="1" stop-color="#D3BEC2"/></radialGradient>
<radialGradient id="rg19" cx="0.5" cy="0.5" r="0.75" fx="0.35" fy="0.3"><stop offset="0" stop-color="#F8EDEF"/><stop offset="1" stop-color="#D3BEC2"/></radialGradient>
<radialGradient id="rg20" cx="0.5" cy="0.5" r="0.75" fx="0.35" fy="0.3"><stop offset="0" stop-color="#F8EDEF"/><stop offset="1" stop-color="#D3BEC2"/></radialGradient>
<radialGradient id="rg21" cx="0.5" cy="0.5" r="0.75" fx="0.35" fy="0.3"><stop offset="0" stop-color="#F8EDEF"/><stop offset="1" stop-color="#D3BEC2"/></radialGradient>
<radialGradient id="rg22" cx="0.5" cy="0.5" r="0.75" fx="0.35" fy="0.3"><stop offset="0" stop-color="#F8EDEF"/><stop offset="1" stop-color="#D3BEC2"/></radialGradient>
<radialGradient id="rg23" cx="0.5" cy="0.5" r="0.75" fx="0.35" fy="0.3"><stop offset="0" stop-color="#F8EDEF"/><stop offset="1" stop-color="#D3BEC2"/></radialGradient>
<radialGradient id="rg24" cx="0.5" cy="0.5" r="0.75" fx="0.35" fy="0.3"><stop offset="0" stop-color="#F8EDEF"/><stop offset="1" stop-color="#D3BEC2"/></radialGradient>
<radialGradient id="rg25" cx="0.5" cy="0.5" r="0.75" fx="0.35" fy="0.3"><stop offset="0" stop-color="#F8EDEF"/><stop offset="1" stop-color="#D3BEC2"/></radialGradient>
<radialGradient id="rg26" cx="0.5" cy="0.5" r="0.75" fx="0.35" fy="0.3"><stop offset="0" stop-color="#F8EDEF"/><stop offset="1" stop-color="#D3BEC2"/></radialGradient>
<radialGradient id="rg27" cx="0.5" cy="0.5" r="0.75" fx="0.35" fy="0.3"><stop offset="0" stop-color="#F8EDEF"/><stop offset="1" stop-color="#D3BEC2"/></radialGradient>
<radialGradient id="rg28" cx="0.5" cy="0.5" r="0.75" fx="0.35" fy="0.3"><stop offset="0" stop-color="#F8EDEF"/><stop offset="1" stop-color="#D3BEC2"/></radialGradient>
<linearGradient id="lg29" x1="0" y1="0" x2="1" y2="0"><stop offset="0" stop-color="#70A84B"/><stop offset="1" stop-color="#346811"/></linearGradient></defs><g transform="translate(256 356.0) rotate(-40.5) scale(-1 1)"><path d="M0.0 -0.0 L5.3 -2.0 L10.6 -4.0 L15.9 -6.0 L21.2 -7.8 L26.5 -9.6 L31.8 -11.1 L37.2 -12.5 L42.5 -13.7 L47.8 -14.7 L53.1 -15.4 L58.4 -16.0 L63.7 -16.4 L69.0 -16.5 L74.3 -16.5 L79.6 -16.3 L84.9 -15.8 L90.2 -15.2 L95.5 -14.5 L100.8 -13.6 L106.2 -12.5 L111.5 -11.4 L116.8 -10.1 L122.1 -8.8 L127.4 -7.5 L132.7 -6.1 L138.0 -4.7 L143.3 -3.4 L148.6 -2.1 L153.9 -0.9 L159.2 -0.0 L159.2 0.0 L153.9 0.9 L148.6 2.1 L143.3 3.4 L138.0 4.7 L132.7 6.1 L127.4 7.5 L122.1 8.8 L116.8 10.1 L111.5 11.4 L106.2 12.5 L100.8 13.6 L95.5 14.5 L90.2 15.2 L84.9 15.8 L79.6 16.3 L74.3 16.5 L69.0 16.5 L63.7 16.4 L58.4 16.0 L53.1 15.4 L47.8 14.7 L42.5 13.7 L37.2 12.5 L31.8 11.1 L26.5 9.6 L21.2 7.8 L15.9 6.0 L10.6 4.0 L5.3 2.0 L0.0 0.0Z" fill="url(#lg1)"/><path d="M4 0L136.9 0" stroke="#2A540E" stroke-width="2.2" opacity="0.55" fill="none"/></g>
<g transform="translate(256 353.8) rotate(38.7) scale(1 1)"><path d="M0.0 -0.0 L6.4 -2.1 L12.9 -4.2 L19.3 -6.2 L25.7 -8.1 L32.2 -9.9 L38.6 -11.5 L45.0 -12.9 L51.5 -14.2 L57.9 -15.2 L64.3 -16.0 L70.7 -16.6 L77.2 -17.0 L83.6 -17.1 L90.0 -17.1 L96.5 -16.8 L102.9 -16.4 L109.3 -15.8 L115.8 -15.0 L122.2 -14.1 L128.6 -13.0 L135.1 -11.8 L141.5 -10.5 L147.9 -9.2 L154.4 -7.8 L160.8 -6.3 L167.2 -4.9 L173.7 -3.5 L180.1 -2.2 L186.5 -0.9 L192.9 -0.0 L192.9 0.0 L186.5 0.9 L180.1 2.2 L173.7 3.5 L167.2 4.9 L160.8 6.3 L154.4 7.8 L147.9 9.2 L141.5 10.5 L135.1 11.8 L128.6 13.0 L122.2 14.1 L115.8 15.0 L109.3 15.8 L102.9 16.4 L96.5 16.8 L90.0 17.1 L83.6 17.1 L77.2 17.0 L70.7 16.6 L64.3 16.0 L57.9 15.2 L51.5 14.2 L45.0 12.9 L38.6 11.5 L32.2 9.9 L25.7 8.1 L19.3 6.2 L12.9 4.2 L6.4 2.1 L0.0 0.0Z" fill="url(#lg2)"/><path d="M4 0L165.9 0" stroke="#2A540E" stroke-width="2.2" opacity="0.55" fill="none"/></g>
<rect x="248.5" y="340.1" width="15" height="161.9" rx="7.5" fill="url(#lg29)"/>
<path d="M256 200.0C294.9 237.6 294.9 311.9 256 340.1C217.1 311.9 217.1 237.6 256 200.0Z" fill="url(#lg3)"/>
<circle cx="256.0" cy="212.0" r="9.0" fill="url(#rg4)"/>
<circle cx="262.6" cy="217.1" r="8.9" fill="url(#rg5)"/>
<circle cx="268.0" cy="222.2" r="8.8" fill="url(#rg6)"/>
<circle cx="271.1" cy="227.4" r="8.7" fill="url(#rg7)"/>
<circle cx="271.3" cy="232.5" r="8.6" fill="url(#rg8)"/>
<circle cx="268.6" cy="237.6" r="8.5" fill="url(#rg9)"/>
<circle cx="263.5" cy="242.7" r="8.4" fill="url(#rg10)"/>
<circle cx="257.0" cy="247.9" r="8.3" fill="url(#rg11)"/>
<circle cx="250.2" cy="253.0" r="8.2" fill="url(#rg12)"/>
<circle cx="244.6" cy="258.1" r="8.1" fill="url(#rg13)"/>
<circle cx="241.2" cy="263.2" r="8.0" fill="url(#rg14)"/>
<circle cx="240.6" cy="268.4" r="7.9" fill="url(#rg15)"/>
<circle cx="242.9" cy="273.5" r="7.8" fill="url(#rg16)"/>
<circle cx="247.7" cy="278.6" r="7.7" fill="url(#rg17)"/>
<circle cx="254.1" cy="283.7" r="7.6" fill="url(#rg18)"/>
<circle cx="260.9" cy="288.9" r="7.5" fill="url(#rg19)"/>
<circle cx="266.7" cy="294.0" r="7.4" fill="url(#rg20)"/>
<circle cx="270.5" cy="299.1" r="7.3" fill="url(#rg21)"/>
<circle cx="271.5" cy="304.2" r="7.2" fill="url(#rg22)"/>
<circle cx="269.6" cy="309.4" r="7.1" fill="url(#rg23)"/>
<circle cx="265.1" cy="314.5" r="7.0" fill="url(#rg24)"/>
<circle cx="258.9" cy="319.6" r="6.9" fill="url(#rg25)"/>
<circle cx="252.1" cy="324.7" r="6.8" fill="url(#rg26)"/>
<circle cx="246.0" cy="329.9" r="6.7" fill="url(#rg27)"/>
<circle cx="241.9" cy="335.0" r="6.6" fill="url(#rg28)"/></svg>