<svg xmlns="http://www.w3.org/2000/svg" width="512" height="512" viewBox="0 0 512 512"><title>1073_붉은병꽃나무</title><defs><linearGradient id="lg1" x1="0" y1="0" x2="0.4" y2="1"><stop offset="0" stop-color="#789B54"/><stop offset="1" stop-color="#304F10"/></linearGradient>
<linearGradient id="lg2" x1="0" y1="0" x2="0.4" y2="1"><stop offset="0" stop-color="#789B54"/><stop offset="1" stop-color="#304F10"/></linearGradient>
<linearGradient id="lg3" x1="0.3" y1="0" x2="0.7" y2="1"><stop offset="0" stop-color="#F6F6F4"/><stop offset="1" stop-color="#B6B6B3"/></linearGradient>
<radialGradient id="rg4" cx="0.5" cy="0.5" r="0.75" fx="0.35" fy="0.3"><stop offset="0" stop-color="#FAEEB9"/><stop offset="1" stop-color="#B8A860"/></radialGradient>
<linearGradient id="lg5" x1="0" y1="0" x2="1" y2="0"><stop offset="0" stop-color="#70964B"/><stop offset="1" stop-color="#345611"/></linearGradient></defs><g transform="translate(256 368.0) rotate(-36.1) scale(-1 1)"><path d="M0.0 -0.0 L5.7 -7.5 L11.3 -12.3 L17.0 -16.2 L22.6 -19.6 L28.3 -22.6 L33.9 -25.1 L39.6 -27.3 L45.3 -29.1 L50.9 -30.6 L56.6 -31.7 L62.2 -32.6 L67.9 -33.1 L73.6 -33.3 L79.2 -33.3 L84.9 -32.9 L90.5 -32.3 L96.2 -31.4 L101.8 -30.3 L107.5 -28.9 L113.2 -27.4 L118.8 -25.6 L124.5 -23.6 L130.1 -21.4 L135.8 -19.0 L141.5 -16.5 L147.1 -13.7 L152.8 -10.8 L158.4 -7.7 L164.1 -4.3 L169.7 -0.0 L169.7 0.0 L164.1 4.3 L158.4 7.7 L152.8 10.8 L147.1 13.7 L141.5 16.5 L135.8 19.0 L130.1 21.4 L124.5 23.6 L118.8 25.6 L113.2 27.4 L107.5 28.9 L101.8 30.3 L96.2 31.4 L90.5 32.3 L84.9 32.9 L79.2 33.3 L73.6 33.3 L67.9 33.1 L62.2 32.6 L56.6 31.7 L50.9 30.6 L45.3 29.1 L39.6 27.3 L33.9 25.1 L28.3 22.6 L22.6 19.6 L17.0 16.2 L11.3 12.3 L5.7 7.5 L0.0 0.0Z" fill="url(#lg1)"/><path d="M4 0L146.0 0" stroke="#2A460E" stroke-width="2.2" opacity="0.55" fill="none"/></g>
<g transform="translate(256 349.6) rotate(40.8) scale(1 1)"><path d="M0.0 -0.0 L6.1 -7.5 L12.1 -12.3 L18.2 -16.2 L24.3 -19.6 L30.4 -22.5 L36.4 -25.1 L42.5 -27.2 L48.6 -29.0 L54.7 -30.5 L60.7 -31.7 L66.8 -32.5 L72.9 -33.0 L78.9 -33.2 L85.0 -33.2 L91.1 -32.8 L97.2 -32.2 L103.2 -31.4 L109.3 -30.2 L115.4 -28.9 L121.5 -27.3 L127.5 -25.5 L133.6 -23.5 L139.7 -21.3 L145.8 -19.0 L151.8 -16.4 L157.9 -13.7 L164.0 -10.8 L170.0 -7.7 L176.1 -4.3 L182.2 -0.0 L182.2 0.0 L176.1 4.3 L170.0 7.7 L164.0 10.8 L157.9 13.7 L151.8 16.4 L145.8 19.0 L139.7 21.3 L133.6 23.5 L127.5 25.5 L121.5 27.3 L115.4 28.9 L109.3 30.2 L103.2 31.4 L97.2 32.2 L91.1 32.8 L85.0 33.2 L78.9 33.2 L72.9 33.0 L66.8 32.5 L60.7 31.7 L54.7 30.5 L48.6 29.0 L42.5 27.2 L36.4 25.1 L30.4 22.5 L24.3 19.6 L18.2 16.2 L12.1 12.3 L6.1 7.5 L0.0 0.0Z" fill="url(#lg2)"/><path d="M4 0L156.7 0" stroke="#2A460E" stroke-width="2.2" opacity="0.55" fill="none"/></g>
<rect x="250.0" y="274.0" width="12" height="228.0" rx="6.0" fill="url(#lg5)"/>
<path d="M173.9 250C165.7 198 346.3 198 338.1 250C313.5 284 198.5 284 173.9 250Z" fill="url(#lg3)"/>
<path d="M214.9 256Q256 280 297.1 256" stroke="#90908E" stroke-width="3" fill="none" opacity="0.55"/>
<circle cx="256.0" cy="246.0" r="8.0" fill="url(#rg4)"/></svg>