<svg xmlns="http://www.w3.org/2000/svg" width="512" height="512" viewBox="0 0 512 512"><title>1792_청시닥나무</title><defs><linearGradient id="lg1" x1="0" y1="0" x2="0.4" y2="1"><stop offset="0" stop-color="#9BD078"/><stop offset="1" stop-color="#4F7F30"/></linearGradient>
<linearGradient id="lg2" x1="0" y1="0" x2="0.4" y2="1"><stop offset="0" stop-color="#9BD078"/><stop offset="1" stop-color="#4F7F30"/></linearGradient>
<radialGradient id="rg3" cx="0.5" cy="0.5" r="0.75" fx="0.35" fy="0.3"><stop offset="0" stop-color="#BCCCE4"/><stop offset="1" stop-color="#607AA0"/></radialGradient>
<radialGradient id="rg4" cx="0.5" cy="0.5" r="0.75" fx="0.35" fy="0.3"><stop offset="0" stop-color="#BCCCE4"/><stop offset="1" stop-color="#607AA0"/></radialGradient>
<radialGradient id="rg5" cx="0.5" cy="0.5" r="0.75" fx="0.35" fy="0.3"><stop offset="0" stop-color="#BCCCE4"/><stop offset="1" stop-color="#607AA0"/></radialGradient>
<radialGradient id="rg6" cx="0.5" cy="0.5" r="0.75" fx="0.35" fy="0.3"><stop offset="0" stop-color="#BCCCE4"/><stop offset="1" stop-color="#607AA0"/></radialGradient>
<radialGradient id="rg7" cx="0.5" cy="0.5" r="0.75" fx="0.35" fy="0.3"><stop offset="0" stop-color="#BCCCE4"/><stop offset="1" stop-color="#607AA0"/></radialGradient>
<radialGradient id="rg8" cx="0.5" cy="0.5" r="0.75" fx="0.35" fy="0.3"><stop offset="0" stop-color="#BCCCE4"/><stop offset="1" stop-color="#607AA0"/></radialGradient>
<radialGradient id="rg9" cx="0.5" cy="0.5" r="0.75" fx="0.35" fy="0.3"><stop offset="0" stop-color="#BCCCE4"/><stop offset="1" stop-color="#607AA0"/></radialGradient>
<radialGradient id="rg10" cx="0.5" cy="0.5" r="0.75" fx="0.35" fy="0.3"><stop offset="0" stop-color="#BCCCE4"/><stop offset="1" stop-color="#607AA0"/></radialGradient>
<radialGradient id="rg11" cx="0.5" cy="0.5" r="0.75" fx="0.35" fy="0.3"><stop offset="0" stop-color="#BCCCE4"/><stop offset="1" stop-color="#607AA0"/></radialGradient>
<radialGradient id="rg12" cx="0.5" cy="0.5" r="0.75" fx="0.35" fy="0.3"><stop offset="0" stop-color="#BCCCE4"/><stop offset="1" stop-color="#607AA0"/></radialGradient>
<radialGradient id="rg13" cx="0.5" cy="0.5" r="0.75" fx="0.35" fy="0.3"><stop offset="0" stop-color="#BCCCE4"/><stop offset="1" stop-color="#607AA0"/></radialGradient>
<radialGradient id="rg14" cx="0.5" cy="0.5" r="0.75" fx="0.35" fy="0.3"><stop offset="0" stop-color="#BCCCE4"/><stop offset="1" stop-color="#607AA0"/></radialGradient>
<radialGradient id="rg15" cx="0.5" cy="0.5" r="0.75" fx="0.35" fy="0.3"><stop offset="0" stop-color="#BCCCE4"/><stop offset="1" stop-color="#607AA0"/></radialGradient>
<radialGradient id="rg16" cx="0.5" cy="0.5" r="0.75" fx="0.35" fy="0.3"><stop offset="0" stop-color="#BCCCE4"/><stop offset="1" stop-color="#607AA0"/></radialGradient>
<radialGradient id="rg17" cx="0.5" cy="0.5" r="0.75" fx="0.35" fy="0.3"><stop offset="0" stop-color="#BCCCE4"/><stop offset="1" stop-color="#607AA0"/></radialGradient>
<radialGradient id="rg18" cx="0.5" cy="0.5" r="0.75" fx="0.35" fy="0.3"><stop offset="0" stop-color="#BCCCE4"/><stop offset="1" stop-color="#607AA0"/></radialGradient>
<radialGradient id="rg19" cx="0.5" cy="0.5" r="0.75" fx="0.35" fy="0.3"><stop offset="0" stop-color="#BCCCE4"/><stop offset="1" stop-color="#607AA0"/></radialGradient>
<radialGradient id="rg20" cx="0.5" cy="0.5" r="0.75" fx="0.35" fy="0.3"><stop offset="0" stop-color="#BCCCE4"/><stop offset="1" stop-color="#607AA0"/></radialGradient>
<radialGradient id="rg21" cx="0.5" cy="0.5" r="0.75" fx="0.35" fy="0.3"><stop offset="0" stop-color="#BCCCE4"/><stop offset="1" stop-color="#607AA0"/></radialGradient>
<radialGradient id="rg22" cx="0.5" cy="0.5" r="0.75" fx="0.35" fy="0.3"><stop offset="0" stop-color="#BCCCE4"/><stop offset="1" stop-color="#607AA0"/></radialGradient>
<radialGradient id="rg23" cx="0.5" cy="0.5" r="0.75" fx="0.35" fy="0.3"><stop offset="0" stop-color="#BCCCE4"/><stop offset="1" stop-color="#607AA0"/></radialGradient>
<radialGradient id="rg24" cx="0.5" cy="0.5" r="0.75" fx="0.35" fy="0.3"><stop offset="0" stop-color="#BCCCE4"/><stop offset="1" stop-color="#607AA0"/></radialGradient>
<radialGradient id="rg25" cx="0.5" cy="0.5" r="0.75" fx="0.35" fy="0.3"><stop offset="0" stop-color="#BCCCE4"/><stop offset="1" stop-color="#607AA0"/></radialGradient>
<radialGradient id="rg26" cx="0.5" cy="0.5" r="0.75" fx="0.35" fy="0.3"><stop offset="0" stop-color="#BCCCE4"/><stop offset="1" stop-color="#607AA0"/></radialGradient>
<radialGradient id="rg27" cx="0.5" cy="0.5" r="0.75" fx="0.35" fy="0.3"><stop offset="0" stop-color="#BCCCE4"/><stop offset="1" stop-color="#607AA0"/></radialGradient>
<radialGradient id="rg28" cx="0.5" cy="0.5" r="0.75" fx="0.35" fy="0.3"><stop offset="0" stop-color="#BCCCE4"/><stop offset="1" stop-color="#607AA0"/></radialGradient>
<radialGradient id="rg29" cx="0.5" cy="0.5" r="0.75" fx="0.35" fy="0.3"><stop offset="0" stop-color="#BCCCE4"/><stop offset="1" stop-color="#607AA0"/></radialGradient>
<radialGradient id="rg30" cx="0.5" cy="0.5" r="0.75" fx="0.35" fy="0.3"><stop offset="0" stop-color="#BCCCE4"/><stop offset="1" stop-color="#607AA0"/></radialGradient>
<radialGradient id="rg31" cx="0.5" cy="0.5" r="0.75" fx="0.35" fy="0.3"><stop offset="0" stop-color="#BCCCE4"/><stop offset="1" stop-color="#607AA0"/></radialGradient>
<radialGradient id="rg32" cx="0.5" cy="0.5" r="0.75" fx="0.35" fy="0.3"><stop offset="0" stop-color="#BCCCE4"/><stop offset="1" stop-color="#607AA0"/></radialGradient>
<radialGradient id="rg33" cx="0.5" cy="0.5" r="0.75" fx="0.35" fy="0.3"><stop offset="0" stop-color="#BCCCE4"/><stop offset="1" stop-color="#607AA0"/></radialGradient>
<radialGradient id="rg34" cx="0.5" cy="0.5" r="0.75" fx="0.35" fy="0.3"><stop offset="0" stop-color="#BCCCE4"/><stop offset="1" stop-color="#607AA0"/></radialGradient>
<linearGradient id="lg35" x1="0" y1="0" x2="1" y2="0"><stop offset="0" stop-color="#8A6038"/><stop offset="1" stop-color="#4A3018"/></linearGradient></defs><g transform="translate(256 356.0) rotate(-32.4) scale(-1 1)"><path d="M0 0 L14.3 -60.4 L34.9 -29.3 L114.1 -47.3 L78.5 -17.7 L174.5 -17.8 L94.9 0.0 L174.5 17.8 L78.5 17.7 L114.1 47.3 L34.9 29.3 L14.3 60.4 Z" fill="url(#lg1)"/><path d="M4 0L157.0 0" stroke="#466F2A" stroke-width="2.2" opacity="0.55" fill="none"/></g>
<g transform="translate(256 356.0) rotate(33.1) scale(1 1)"><path d="M0 0 L13.9 -58.1 L33.8 -28.2 L110.4 -45.5 L75.9 -17.0 L168.8 -17.1 L91.8 0.0 L168.8 17.1 L75.9 17.0 L110.4 45.5 L33.8 28.2 L13.9 58.1 Z" fill="url(#lg2)"/><path d="M4 0L151.9 0" stroke="#466F2A" stroke-width="2.2" opacity="0.55" fill="none"/></g>
<rect x="249.5" y="270.0" width="13" height="232.0" rx="6.5" fill="url(#lg35)"/>
<path d="M256 270.0L194.7 248.6" stroke="#629D3B" stroke-width="3" fill="none"/>
<path d="M256 270.0L215.1 244.5" stroke="#629D3B" stroke-width="3" fill="none"/>
<path d="M256 270.0L235.6 240.4" stroke="#629D3B" stroke-width="3" fill="none"/>
<path d="M256 270.0L256.0 236.3" stroke="#629D3B" stroke-width="3" fill="none"/>
<path d="M256 270.0L276.4 240.4" stroke="#629D3B" stroke-width="3" fill="none"/>
<path d="M256 270.0L296.9 244.5" stroke="#629D3B" stroke-width="3" fill="none"/>
<path d="M256 270.0L317.3 248.6" stroke="#629D3B" stroke-width="3" fill="none"/>
<circle cx="232.8" cy="223.8" r="12.5" fill="url(#rg3)"/>
<circle cx="232.8" cy="223.8" r="3.4" fill="#4D6180" opacity="0.6"/>
<circle cx="237.6" cy="229.3" r="14.5" fill="url(#rg4)"/>
<circle cx="237.6" cy="229.3" r="3.4" fill="#4D6180" opacity="0.6"/>
<circle cx="312.0" cy="231.3" r="14.6" fill="url(#rg5)"/>
<circle cx="312.0" cy="231.3" r="3.4" fill="#4D6180" opacity="0.6"/>
<circle cx="309.9" cy="261.7" r="14.6" fill="url(#rg6)"/>
<circle cx="309.9" cy="261.7" r="3.4" fill="#4D6180" opacity="0.6"/>
<circle cx="264.2" cy="225.8" r="15.0" fill="url(#rg7)"/>
<circle cx="264.2" cy="225.8" r="3.4" fill="#4D6180" opacity="0.6"/>
<circle cx="277.4" cy="227.7" r="11.3" fill="url(#rg8)"/>
<circle cx="277.4" cy="227.7" r="3.4" fill="#4D6180" opacity="0.6"/>
<circle cx="274.5" cy="237.1" r="15.2" fill="url(#rg9)"/>
<circle cx="274.5" cy="237.1" r="3.4" fill="#4D6180" opacity="0.6"/>
<circle cx="271.7" cy="215.8" r="11.5" fill="url(#rg10)"/>
<circle cx="271.7" cy="215.8" r="3.4" fill="#4D6180" opacity="0.6"/>
<circle cx="198.3" cy="257.0" r="12.3" fill="url(#rg11)"/>
<circle cx="198.3" cy="257.0" r="3.4" fill="#4D6180" opacity="0.6"/>
<circle cx="219.3" cy="255.9" r="14.8" fill="url(#rg12)"/>
<circle cx="219.3" cy="255.9" r="3.4" fill="#4D6180" opacity="0.6"/>
<circle cx="217.5" cy="227.4" r="13.5" fill="url(#rg13)"/>
<circle cx="217.5" cy="227.4" r="3.4" fill="#4D6180" opacity="0.6"/>
<circle cx="304.2" cy="263.5" r="12.5" fill="url(#rg14)"/>
<circle cx="304.2" cy="263.5" r="3.4" fill="#4D6180" opacity="0.6"/>
<circle cx="279.7" cy="273.7" r="12.0" fill="url(#rg15)"/>
<circle cx="279.7" cy="273.7" r="3.4" fill="#4D6180" opacity="0.6"/>
<circle cx="231.8" cy="255.0" r="11.9" fill="url(#rg16)"/>
<circle cx="231.8" cy="255.0" r="3.4" fill="#4D6180" opacity="0.6"/>
<circle cx="237.1" cy="272.7" r="12.0" fill="url(#rg17)"/>
<circle cx="237.1" cy="272.7" r="3.4" fill="#4D6180" opacity="0.6"/>
<circle cx="232.5" cy="257.4" r="11.9" fill="url(#rg18)"/>
<circle cx="232.5" cy="257.4" r="3.4" fill="#4D6180" opacity="0.6"/>
<circle cx="283.9" cy="231.5" r="15.3" fill="url(#rg19)"/>
<circle cx="283.9" cy="231.5" r="3.4" fill="#4D6180" opacity="0.6"/>
<circle cx="301.4" cy="241.1" r="13.6" fill="url(#rg20)"/>
<circle cx="301.4" cy="241.1" r="3.4" fill="#4D6180" opacity="0.6"/>
<circle cx="260.4" cy="258.3" r="12.0" fill="url(#rg21)"/>
<circle cx="260.4" cy="258.3" r="3.4" fill="#4D6180" opacity="0.6"/>
<circle cx="310.4" cy="238.0" r="15.8" fill="url(#rg22)"/>
<circle cx="310.4" cy="238.0" r="3.4" fill="#4D6180" opacity="0.6"/>
<circle cx="270.4" cy="248.2" r="12.9" fill="url(#rg23)"/>
<circle cx="270.4" cy="248.2" r="3.4" fill="#4D6180" opacity="0.6"/>
<circle cx="207.2" cy="260.3" r="11.4" fill="url(#rg24)"/>
<circle cx="207.2" cy="260.3" r="3.4" fill="#4D6180" opacity="0.6"/>
<circle cx="251.1" cy="234.9" r="15.8" fill="url(#rg25)"/>
<circle cx="251.1" cy="234.9" r="3.4" fill="#4D6180" opacity="0.6"/>
<circle cx="270.8" cy="221.9" r="11.8" fill="url(#rg26)"/>
<circle cx="270.8" cy="221.9" r="3.4" fill="#4D6180" opacity="0.6"/>
<circle cx="250.6" cy="228.1" r="13.0" fill="url(#rg27)"/>
<circle cx="250.6" cy="228.1" r="3.4" fill="#4D6180" opacity="0.6"/>
<circle cx="264.3" cy="265.0" r="11.1" fill="url(#rg28)"/>
<circle cx="264.3" cy="265.0" r="3.4" fill="#4D6180" opacity="0.6"/>
<circle cx="269.3" cy="273.6" r="13.4" fill="url(#rg29)"/>
<circle cx="269.3" cy="273.6" r="3.4" fill="#4D6180" opacity="0.6"/>
<circle cx="221.7" cy="222.1" r="14.4" fill="url(#rg30)"/>
<circle cx="221.7" cy="222.1" r="3.4" fill="#4D6180" opacity="0.6"/>
<circle cx="250.4" cy="229.2" r="13.6" fill="url(#rg31)"/>
<circle cx="250.4" cy="229.2" r="3.4" fill="#4D6180" opacity="0.6"/>
<circle cx="232.1" cy="236.4" r="15.9" fill="url(#rg32)"/>
<circle cx="232.1" cy="236.4" r="3.4" fill="#4D6180" opacity="0.6"/>
<circle cx="266.1" cy="215.3" r="12.8" fill="url(#rg33)"/>
<circle cx="266.1" cy="215.3" r="3.4" fill="#4D6180" opacity="0.6"/>
<circle cx="246.6" cy="259.7" r="11.7" fill="url(#rg34)"/>
<circle cx="246.6" cy="259.7" r="3.4" fill="#4D6180" opacity="0.6"/></svg>